<svg width="1214" height="146" viewBox="0 0 1214 146" fill="none" xmlns="http://www.w3.org/2000/svg">
<path d="M0.799219 143V113.48H9.79922V32.48H0.799219V2.95999H76.7592V32.48H60.1992V113.48H76.3992V96.92H112.219V143H0.799219ZM198.268 145.52C179.428 145.52 164.848 141.38 154.528 133.1C144.328 124.82 139.228 111.38 139.228 92.78V32.48H130.228V2.95999H196.828V32.48H189.628V101.96C189.628 105.92 190.468 108.86 192.148 110.78C193.948 112.58 196.588 113.48 200.068 113.48C203.548 113.48 206.128 112.58 207.808 110.78C209.608 108.86 210.508 105.92 210.508 101.96V32.48H203.308V2.95999H265.048V32.48H256.048V92.78C256.048 111.38 251.068 124.82 241.108 133.1C231.148 141.38 216.868 145.52 198.268 145.52ZM424.393 113.48H433.393V143H384.253L357.253 87.2L348.973 94.04V113.48H357.613V143H289.573V113.48H298.573V32.48H289.573V2.95999H357.613V32.48H348.973V56.24L376.873 32.48H365.533V2.95999H432.493V32.48H423.493L393.433 57.32L424.393 113.48ZM457.866 143V113.48H466.866V32.48H457.866V2.95999H579.366V57.32H539.046V32.48H517.266V60.92H533.106V81.44H517.266V113.48H539.046V85.04H579.366V143H457.866Z" fill="#58555A"/>
<path d="M604.186 113.48H613.186V32.48H604.186V2.95999H683.206C698.686 2.95999 710.506 6.31999 718.666 13.04C726.826 19.64 730.906 30.38 730.906 45.26C730.906 60.14 726.826 70.94 718.666 77.66C710.506 84.26 698.686 87.56 683.206 87.56H663.586V113.48H680.866V143H604.186V113.48ZM669.706 62C676.666 62 680.146 58.16 680.146 50.48V44C680.146 40.04 679.246 37.16 677.446 35.36C675.766 33.44 673.186 32.48 669.706 32.48H663.586V62H669.706ZM755.077 113.48H764.077V32.48H755.077V2.95999H837.697C853.177 2.95999 864.997 6.13999 873.157 12.5C881.317 18.86 885.397 29.18 885.397 43.46C885.397 51.5 883.777 58.46 880.537 64.34C877.297 70.22 872.677 74.3 866.677 76.58L866.857 78.38C878.377 80.18 884.137 87.26 884.137 99.62V113.48H892.597V143H835.537V100.7C835.537 96.02 834.817 92.48 833.377 90.08C832.057 87.68 829.897 86.06 826.897 85.22C824.017 84.38 819.877 83.96 814.477 83.96V113.48H826.357V143H755.077V113.48ZM824.197 62C827.677 62 830.257 61.1 831.937 59.3C833.737 57.38 834.637 54.44 834.637 50.48V44C834.637 40.04 833.737 37.16 831.937 35.36C830.257 33.44 827.677 32.48 824.197 32.48H814.477V62H824.197ZM984.721 145.52C962.761 145.52 945.781 139.76 933.781 128.24C921.901 116.72 915.961 98.3 915.961 72.98C915.961 47.66 921.901 29.24 933.781 17.72C945.781 6.19999 962.761 0.43999 984.721 0.43999C1006.68 0.43999 1023.6 6.19999 1035.48 17.72C1047.48 29.24 1053.48 47.66 1053.48 72.98C1053.48 98.3 1047.48 116.72 1035.48 128.24C1023.6 139.76 1006.68 145.52 984.721 145.52ZM984.721 113.48C988.801 113.48 991.861 112.4 993.901 110.24C995.941 108.08 996.961 104.72 996.961 100.16V45.8C996.961 41.24 995.941 37.88 993.901 35.72C991.861 33.56 988.801 32.48 984.721 32.48C980.641 32.48 977.581 33.56 975.541 35.72C973.501 37.88 972.481 41.24 972.481 45.8V100.16C972.481 104.84 973.501 108.26 975.541 110.42C977.581 112.46 980.641 113.48 984.721 113.48ZM1213.32 98H1204.32V134C1199.04 137 1191.3 139.7 1181.1 142.1C1171.02 144.38 1160.1 145.52 1148.34 145.52C1125.9 145.52 1108.32 139.64 1095.6 127.88C1082.88 116 1076.52 97.7 1076.52 72.98C1076.52 47.66 1082.82 29.24 1095.42 17.72C1108.14 6.19999 1126.26 0.43999 1149.78 0.43999C1161.18 0.43999 1171.86 1.63999 1181.82 4.04C1191.78 6.44 1199.28 9.13999 1204.32 12.14V55.16H1159.32V46.7C1159.32 41.66 1158.24 38.06 1156.08 35.9C1154.04 33.62 1150.74 32.48 1146.18 32.48C1141.62 32.48 1138.26 33.62 1136.1 35.9C1134.06 38.06 1133.04 41.66 1133.04 46.7V99.26C1133.04 104.3 1134.06 107.96 1136.1 110.24C1138.26 112.4 1141.62 113.48 1146.18 113.48C1150.74 113.48 1154.04 112.4 1156.08 110.24C1158.24 107.96 1159.32 104.3 1159.32 99.26V98H1149.6V71.18H1213.32V98Z" fill="#FBF37C"/>
</svg>
